<?xml version="1.0" standalone="no"?>
<!DOCTYPE svg PUBLIC "-//W3C//DTD SVG 20010904//EN"
 "http://www.w3.org/TR/2001/REC-SVG-20010904/DTD/svg10.dtd">
<svg version="1.0" xmlns="http://www.w3.org/2000/svg"
 width="512.000000pt" height="512.000000pt" viewBox="0 0 512.000000 512.000000"
 preserveAspectRatio="xMidYMid meet">
<metadata>
Created by potrace 1.14, written by Peter Selinger 2001-2017
</metadata>
<g transform="translate(0.000000,512.000000) scale(0.100000,-0.100000)"
fill="#000000" stroke="none">
<path d="M1983 5101 c-29 -18 -54 -51 -59 -76 -2 -10 -31 -206 -40 -275 -3
-19 -7 -46 -9 -60 -2 -14 -7 -47 -11 -75 -3 -27 -8 -57 -9 -65 -2 -9 -8 -59
-15 -113 l-12 -97 -108 -54 c-110 -56 -227 -127 -290 -176 l-35 -27 -235 93
c-129 52 -244 98 -255 104 -158 74 -232 82 -280 32 -21 -23 -476 -799 -536
-914 -34 -67 -18 -134 42 -176 13 -9 74 -55 135 -103 61 -48 162 -126 225
-174 180 -137 168 -121 161 -207 -8 -96 -8 -243 0 -345 5 -80 5 -83 -21 -102
-14 -11 -37 -29 -51 -40 -14 -11 -117 -93 -230 -181 -253 -199 -270 -215 -277
-267 -5 -41 3 -61 80 -194 159 -276 200 -346 208 -359 5 -8 60 -103 122 -210
134 -233 134 -233 172 -252 47 -23 87 -17 200 33 11 5 136 56 279 113 l259
105 52 -39 c79 -58 180 -119 286 -171 l95 -47 18 -134 c10 -73 20 -142 22
-153 4 -26 43 -308 50 -360 7 -55 33 -97 74 -117 32 -16 81 -18 575 -18 518 0
541 1 572 20 39 24 60 62 68 126 7 57 14 99 20 134 2 14 7 48 10 75 3 28 7 61
10 75 2 14 7 45 10 70 3 25 7 54 9 65 2 11 7 49 12 85 4 36 9 68 10 73 1 4 2
18 3 32 1 21 16 32 108 77 59 29 158 86 221 128 l114 76 316 -128 c174 -70
333 -130 352 -132 42 -5 67 5 98 36 27 27 540 912 548 946 8 31 -3 83 -24 107
-9 11 -136 112 -282 224 -146 113 -268 209 -271 214 -4 5 -4 30 -2 56 8 69 8
307 1 386 -5 51 -3 72 7 80 7 5 127 98 266 206 140 108 264 206 276 218 24 23
38 78 29 113 -3 13 -55 108 -116 212 -60 104 -110 190 -110 191 0 5 -297 513
-310 530 -26 36 -64 53 -106 49 -21 -2 -178 -60 -348 -129 -170 -69 -315 -125
-322 -125 -6 0 -61 33 -120 73 -60 39 -150 91 -199 115 -50 24 -97 47 -105 51
-14 8 -20 33 -36 151 -3 25 -7 56 -9 70 -2 14 -7 48 -10 75 -3 28 -8 61 -10
75 -9 51 -32 214 -40 278 -6 51 -25 89 -57 117 -22 19 -39 20 -578 23 -536 2
-556 2 -587 -17z m771 -518 c4 -16 9 -46 11 -68 3 -22 10 -74 16 -115 6 -41
12 -84 14 -95 1 -11 5 -38 8 -60 4 -22 8 -56 11 -75 2 -19 10 -70 16 -112 6
-42 12 -86 13 -97 1 -12 8 -23 17 -25 14 -4 70 -18 80 -21 3 0 37 -11 75 -24
198 -65 394 -188 547 -343 32 -32 61 -58 66 -58 5 0 143 58 308 129 164 71
302 128 305 125 3 -2 35 -54 70 -116 35 -62 69 -120 74 -130 44 -73 46 -80 28
-94 -10 -7 -84 -61 -164 -121 -81 -59 -195 -143 -253 -186 -59 -43 -105 -81
-102 -85 9 -15 46 -165 52 -211 3 -25 9 -65 14 -88 11 -65 3 -309 -14 -398 -8
-44 -23 -112 -34 -150 l-18 -70 267 -195 c148 -107 268 -198 269 -202 0 -6
-176 -315 -186 -327 -2 -2 -14 0 -27 6 -25 12 -231 101 -450 194 l-147 62 -33
-35 c-173 -189 -432 -342 -693 -408 -47 -12 -47 -11 -64 -140 -6 -47 -13 -96
-15 -110 -2 -14 -6 -45 -10 -70 -6 -50 -16 -117 -20 -141 -2 -9 -6 -38 -10
-65 -3 -27 -9 -71 -13 -99 l-7 -50 -195 0 -195 0 -7 50 c-4 28 -10 69 -12 93
-3 23 -8 57 -11 75 -12 73 -16 99 -35 242 -29 217 -29 215 -59 215 -30 0 -193
56 -276 94 -146 68 -295 173 -407 290 l-58 59 -77 -33 c-43 -18 -96 -40 -118
-50 -118 -54 -426 -182 -429 -179 -8 12 -66 110 -66 113 0 3 -27 50 -60 106
-33 56 -60 105 -60 108 1 4 32 30 71 57 39 28 109 79 157 115 48 36 138 102
199 147 l112 83 -13 38 c-12 34 -21 74 -51 227 -13 65 -13 293 1 385 12 85 48
242 60 261 5 8 -37 40 -356 274 -96 70 -177 129 -179 131 -2 2 8 22 23 44 14
22 26 41 26 43 0 6 130 231 138 239 4 4 142 -52 307 -123 165 -71 304 -129
309 -129 5 0 36 28 70 63 100 103 226 195 361 264 77 40 276 113 306 113 32 0
48 25 54 85 3 33 7 71 10 85 6 33 12 73 20 135 4 28 8 61 10 75 2 14 7 48 10
75 4 28 8 57 10 65 2 8 7 40 10 70 11 98 -8 90 205 90 l188 0 6 -27z"/>
<path d="M2460 3579 c-25 -4 -63 -9 -85 -12 -22 -3 -71 -16 -110 -28 -444
-137 -746 -557 -728 -1014 16 -423 284 -787 686 -930 51 -18 117 -36 147 -40
30 -4 58 -9 63 -12 17 -10 238 -3 307 11 103 21 108 22 170 44 500 180 781
731 634 1240 -79 272 -261 498 -504 626 -63 33 -240 100 -240 91 0 -2 -11 0
-24 4 -50 20 -239 31 -316 20z m260 -535 c92 -31 142 -64 212 -136 129 -136
172 -335 110 -513 -41 -116 -98 -191 -202 -261 -188 -129 -462 -105 -626 53
-109 105 -155 206 -162 353 -4 83 -1 105 22 173 32 95 63 146 133 214 131 130
336 176 513 117z"/>
</g>
</svg>
