<svg version="1" xmlns="http://www.w3.org/2000/svg" width="682.667" height="682.667" viewBox="0 0 512.000000 512.000000"><path d="M222.5 32.4c-3.9 1.7-4.3 2.2-18 22.6-6.5 9.6-16.9 24.9-23 34-10.3 15.2-39.6 58.6-52.3 77.5-2.9 4.4-6 8.9-6.8 10-.7 1.1-2.6 3.8-4 6-1.5 2.2-10.5 15.5-19.9 29.6-14.3 21.2-17.2 26-16.8 28.3.3 1.4 1.5 3.1 2.6 3.7 1.3.8 16.2 1.1 45.3 1.1 23.9 0 43.4.3 43.4.6-.1.4-7 14.2-15.4 30.7-8.5 16.5-21.6 42.1-29.1 57-7.6 14.8-16.8 32.8-20.5 40-11.3 21.7-12.4 24-12.5 24.5 0 .3-.4 1.1-.9 1.8-.4.7-5.5 10.6-11.3 22-5.8 11.4-14.1 27.6-18.4 36.1-4.4 8.5-7.9 16.2-7.9 17.2 0 2.4 3.8 5.9 6.4 5.9 3.2 0 5.4-1.7 38.1-28.8 1.1-1 8.3-6.9 16-13.2 7.7-6.3 14.9-12.3 16-13.2 1.1-.9 7.9-6.5 15-12.3 15.8-13 41.1-33.8 72.5-59.6 12.9-10.6 40.2-33 60.5-49.7 20.4-16.7 38.1-31.3 39.5-32.6 1.4-1.2 6.1-5.1 10.5-8.6 8.2-6.6 64.8-53.2 82-67.4 3.3-2.8 6.1-5 6.2-5.1.1 0 .4-1.2.7-2.7.3-1.7-.2-3.3-1.5-4.7-2-2.1-2.4-2.1-55.7-2.1h-53.7l13.1-12.8c7.3-7 24-23.3 37.2-36.2 13.2-12.9 40-39.2 59.6-58.4C439 54.4 455 38 455 37.1c0-.9-.7-2.7-1.6-3.9l-1.5-2.2H338.7c-91.7.1-113.8.3-116.2 1.4z"/></svg>