<?xml version="1.0" standalone="no"?>
<!DOCTYPE svg PUBLIC "-//W3C//DTD SVG 20010904//EN"
 "http://www.w3.org/TR/2001/REC-SVG-20010904/DTD/svg10.dtd">
<svg version="1.0" xmlns="http://www.w3.org/2000/svg"
 width="326.000000pt" height="326.000000pt" viewBox="0 0 326.000000 326.000000"
 preserveAspectRatio="xMidYMid meet">
<metadata>
Created by potrace 1.14, written by Peter Selinger 2001-2017
</metadata>
<g transform="translate(0.000000,326.000000) scale(0.100000,-0.100000)"
fill="#000000" stroke="none">
<path d="M1325 3180 c-58 -16 -80 -25 -137 -59 -71 -40 -123 -91 -150 -145
-11 -23 -30 -51 -41 -63 -18 -20 -19 -27 -9 -60 10 -31 9 -38 -6 -49 -18 -13
-20 -88 -3 -149 6 -23 6 -47 -2 -70 -14 -45 3 -115 39 -162 13 -17 24 -34 24
-38 0 -3 -14 -19 -31 -35 -23 -21 -30 -34 -26 -50 4 -14 0 -23 -11 -27 -33
-10 -131 -52 -174 -74 -10 -5 -25 -9 -33 -9 -8 0 -33 -11 -55 -25 -22 -14 -44
-25 -50 -25 -6 0 -18 -4 -28 -9 -9 -5 -25 -12 -35 -15 -9 -3 -20 -12 -23 -21
-4 -8 -19 -29 -35 -46 -15 -16 -31 -38 -34 -49 -5 -15 -13 -18 -40 -13 -41 7
-49 -7 -49 -82 1 -55 27 -114 77 -179 28 -35 30 -44 29 -107 -2 -78 12 -115
55 -147 24 -17 26 -22 13 -37 -12 -14 -11 -20 4 -46 13 -22 15 -36 8 -61 -17
-61 3 -108 54 -133 44 -21 46 -27 29 -69 -28 -65 -17 -141 32 -218 l23 -37
-41 -12 c-35 -11 -44 -10 -71 5 -28 17 -33 17 -81 2 -62 -20 -68 -23 -90 -56
-25 -37 -22 -92 8 -124 31 -34 67 -47 128 -48 49 0 63 6 223 92 l42 22 33 -23
c19 -13 35 -24 36 -25 2 0 -2 -16 -8 -35 -16 -51 -12 -136 8 -170 10 -16 21
-29 25 -29 4 0 -11 -35 -33 -77 -31 -60 -42 -95 -48 -153 -5 -41 -13 -88 -18
-105 -24 -74 23 -155 73 -127 11 6 30 52 49 118 41 138 77 227 128 318 56 99
99 155 119 156 9 0 20 5 23 10 3 6 17 10 31 10 45 0 79 26 102 78 18 39 29 51
52 55 38 8 144 -16 195 -43 25 -13 53 -20 76 -18 l36 3 -19 -30 c-10 -16 -18
-49 -18 -72 0 -33 6 -48 31 -72 17 -17 41 -31 53 -31 12 0 27 -5 33 -11 6 -6
55 -11 113 -12 l102 -2 38 43 c21 23 46 42 56 42 30 0 82 36 98 69 9 16 18 48
22 72 4 24 13 51 20 60 8 8 17 29 20 45 6 29 41 61 120 111 22 14 48 37 58 52
12 17 27 27 44 26 20 0 30 9 48 44 12 25 31 48 43 52 26 10 37 66 23 119 -6
23 -6 42 -1 46 28 17 -19 84 -60 84 -9 0 -27 16 -41 34 -14 19 -37 42 -51 52
l-26 17 46 72 c67 102 108 189 130 276 32 127 18 166 -104 285 -72 70 -82 84
-78 108 4 21 -2 34 -31 62 -29 28 -35 40 -30 60 5 21 -3 34 -56 85 -51 50 -61
65 -56 85 7 27 21 31 30 9 3 -9 18 -15 39 -15 19 0 48 -5 66 -11 25 -9 36 -8
56 5 14 9 25 25 25 36 0 17 7 20 53 20 64 0 75 -7 91 -55 16 -46 10 -107 -16
-163 -23 -49 -18 -72 15 -72 48 0 107 93 107 168 0 21 5 43 11 49 9 9 9 24 -1
60 -15 54 -44 106 -53 97 -3 -4 -25 10 -48 29 -73 63 -101 72 -224 72 -99 0
-117 -3 -175 -28 -36 -16 -85 -34 -110 -41 -25 -7 -55 -16 -67 -20 -15 -5 -27
-1 -42 15 -13 14 -28 20 -44 17 -14 -3 -34 3 -48 13 -18 14 -23 27 -24 71 -2
63 -25 160 -48 205 -23 43 -95 97 -168 125 -51 20 -59 26 -59 49 0 15 -6 31
-12 37 -45 36 -221 61 -293 42z m70 -221 c22 -6 55 -20 72 -31 31 -18 32 -21
18 -41 -18 -26 -19 -51 -3 -76 14 -22 5 -49 -19 -58 -53 -18 -81 -81 -50 -112
10 -10 7 -11 -16 -6 -15 4 -33 3 -40 -3 -27 -21 -47 -10 -54 31 -4 26 -12 41
-24 44 -10 3 -19 15 -21 27 -2 14 -11 22 -28 24 -24 3 -25 6 -24 65 1 119 69
167 189 136z m-250 -94 c14 -12 18 -40 16 -126 -1 -48 -4 -57 -21 -62 -23 -6
-27 -39 -7 -59 7 -7 18 -36 25 -65 13 -48 12 -53 -7 -72 -12 -12 -25 -21 -31
-21 -5 0 -13 -7 -18 -16 -7 -13 -14 -7 -32 31 -22 45 -22 51 -10 118 9 52 10
72 1 75 -18 6 -13 19 9 25 16 4 20 14 21 49 1 23 1 46 0 50 -2 17 32 111 37
98 2 -8 10 -20 17 -25z m-648 -917 c-3 -8 -6 -5 -6 6 -1 11 2 17 5 13 3 -3 4
-12 1 -19z"/>
<path d="M2694 1275 c-4 -8 1 -30 10 -49 9 -19 16 -38 16 -43 1 -22 62 -73 89
-73 25 0 30 37 10 76 -43 81 -110 129 -125 89z"/>
</g>
</svg>
