<svg version="1" xmlns="http://www.w3.org/2000/svg" width="682.667" height="682.667" viewBox="0 0 512.000000 512.000000"><path d="M240.8 21.5c-.1.1-3.7.5-7.8.9-36.7 2.9-75.7 16.9-108.4 38.8C66.4 100.3 28.3 164.6 22.2 234c-1.3 15.8-.7 42.8 1.3 54.5 5.2 30.3 11.2 49.1 22.7 72 22.7 45.2 59.7 82.1 104.3 104 16.8 8.3 20 9.6 32 13.5 23.9 7.6 44.1 11 68.8 11.4 72.2 1.4 141-30.7 186.4-86.9 56.5-70 67.8-167.2 28.8-248.1-22.8-47.3-59.2-84.6-105-107.7-26.1-13.2-47.3-19.6-80.5-24.2-4.7-.7-39.6-1.6-40.2-1z"/></svg>