<?xml version="1.0" standalone="no"?>
<!DOCTYPE svg PUBLIC "-//W3C//DTD SVG 20010904//EN"
 "http://www.w3.org/TR/2001/REC-SVG-20010904/DTD/svg10.dtd">
<svg version="1.0" xmlns="http://www.w3.org/2000/svg"
 width="1024.000000pt" height="1024.000000pt" viewBox="0 0 1024.000000 1024.000000"
 preserveAspectRatio="xMidYMid meet">
<metadata>
Created by potrace 1.14, written by Peter Selinger 2001-2017
</metadata>
<g transform="translate(0.000000,1024.000000) scale(0.100000,-0.100000)"
fill="#000000" stroke="none">
<path d="M0 5120 l0 -5120 5120 0 5120 0 0 5120 0 5120 -5120 0 -5120 0 0
-5120z m4700 4454 c208 -61 359 -217 420 -434 37 -134 42 -349 37 -1747 -4
-1123 -7 -1320 -20 -1391 -42 -222 -127 -383 -278 -527 -162 -154 -346 -226
-622 -245 -175 -12 -2582 -12 -2767 0 -253 16 -391 68 -516 194 -136 137 -190
307 -166 525 23 202 135 601 253 896 53 133 195 423 274 560 80 139 257 399
361 530 601 759 1400 1297 2316 1559 146 42 326 84 413 96 82 12 228 4 295
-16z m1191 -249 c798 -181 1463 -529 2030 -1062 645 -607 1065 -1344 1264
-2222 31 -136 35 -171 35 -293 0 -125 -2 -144 -26 -203 -32 -80 -91 -142 -172
-182 l-57 -28 -1550 0 c-1298 0 -1558 2 -1600 14 -211 59 -379 223 -451 441
-18 52 -19 131 -22 1630 -2 1107 0 1594 8 1639 31 178 162 298 331 300 30 1
125 -15 210 -34z m-1496 -4428 c117 -28 230 -90 311 -171 127 -127 170 -228
185 -435 6 -84 9 -710 7 -1626 l-3 -1490 -23 -60 c-44 -117 -100 -173 -211
-212 -101 -35 -110 -34 -431 44 -1213 296 -2227 1097 -2797 2210 -181 352
-289 655 -377 1049 -33 150 -35 171 -32 295 5 181 19 224 100 305 55 55 72 65
142 88 l79 25 1490 -3 c1357 -2 1496 -3 1560 -19z m4531 -148 c130 -24 235
-106 270 -211 32 -96 9 -268 -76 -573 -401 -1436 -1506 -2553 -2940 -2970
-225 -65 -438 -108 -516 -103 -165 11 -279 114 -314 284 -8 35 -10 520 -8
1555 3 1396 5 1508 21 1563 68 229 271 419 490 455 80 13 3000 13 3073 0z"/>
</g>
</svg>
